{
	"patcher" : 	{
		"fileversion" : 1,
		"appversion" : 		{
			"major" : 7,
			"minor" : 3,
			"revision" : 3,
			"architecture" : "x64",
			"modernui" : 1
		}
,
		"rect" : [ 87.0, 224.0, 1456.0, 366.0 ],
		"bglocked" : 0,
		"openinpresentation" : 1,
		"default_fontsize" : 12.0,
		"default_fontface" : 0,
		"default_fontname" : "Arial",
		"gridonopen" : 2,
		"gridsize" : [ 16.0, 16.0 ],
		"gridsnaponopen" : 2,
		"objectsnaponopen" : 1,
		"statusbarvisible" : 2,
		"toolbarvisible" : 1,
		"lefttoolbarpinned" : 0,
		"toptoolbarpinned" : 0,
		"righttoolbarpinned" : 0,
		"bottomtoolbarpinned" : 0,
		"toolbars_unpinned_last_save" : 15,
		"tallnewobj" : 0,
		"boxanimatetime" : 150,
		"enablehscroll" : 1,
		"enablevscroll" : 1,
		"devicewidth" : 0.0,
		"description" : "",
		"digest" : "",
		"tags" : "",
		"style" : "",
		"subpatcher_template" : "ears_template",
		"boxes" : [ 			{
				"box" : 				{
					"comment" : "",
					"id" : "obj-154",
					"index" : 0,
					"maxclass" : "inlet",
					"numinlets" : 0,
					"numoutlets" : 1,
					"outlettype" : [ "" ],
					"patching_rect" : [ 1025.526123, 64.0, 30.0, 30.0 ],
					"style" : ""
				}

			}
, 			{
				"box" : 				{
					"comment" : "",
					"id" : "obj-155",
					"index" : 0,
					"maxclass" : "inlet",
					"numinlets" : 0,
					"numoutlets" : 1,
					"outlettype" : [ "" ],
					"patching_rect" : [ 984.165222, 64.0, 30.0, 30.0 ],
					"style" : ""
				}

			}
, 			{
				"box" : 				{
					"comment" : "",
					"id" : "obj-156",
					"index" : 0,
					"maxclass" : "inlet",
					"numinlets" : 0,
					"numoutlets" : 1,
					"outlettype" : [ "" ],
					"patching_rect" : [ 942.804321, 64.0, 30.0, 30.0 ],
					"style" : ""
				}

			}
, 			{
				"box" : 				{
					"comment" : "",
					"id" : "obj-157",
					"index" : 0,
					"maxclass" : "inlet",
					"numinlets" : 0,
					"numoutlets" : 1,
					"outlettype" : [ "" ],
					"patching_rect" : [ 901.443481, 64.0, 30.0, 30.0 ],
					"style" : ""
				}

			}
, 			{
				"box" : 				{
					"comment" : "",
					"id" : "obj-158",
					"index" : 0,
					"maxclass" : "inlet",
					"numinlets" : 0,
					"numoutlets" : 1,
					"outlettype" : [ "" ],
					"patching_rect" : [ 860.082642, 64.0, 30.0, 30.0 ],
					"style" : ""
				}

			}
, 			{
				"box" : 				{
					"comment" : "",
					"id" : "obj-159",
					"index" : 0,
					"maxclass" : "inlet",
					"numinlets" : 0,
					"numoutlets" : 1,
					"outlettype" : [ "" ],
					"patching_rect" : [ 818.721741, 64.0, 30.0, 30.0 ],
					"style" : ""
				}

			}
, 			{
				"box" : 				{
					"comment" : "",
					"id" : "obj-160",
					"index" : 0,
					"maxclass" : "inlet",
					"numinlets" : 0,
					"numoutlets" : 1,
					"outlettype" : [ "" ],
					"patching_rect" : [ 777.36084, 64.0, 30.0, 30.0 ],
					"style" : ""
				}

			}
, 			{
				"box" : 				{
					"comment" : "",
					"id" : "obj-161",
					"index" : 0,
					"maxclass" : "inlet",
					"numinlets" : 0,
					"numoutlets" : 1,
					"outlettype" : [ "" ],
					"patching_rect" : [ 736.0, 64.0, 30.0, 30.0 ],
					"style" : ""
				}

			}
, 			{
				"box" : 				{
					"comment" : "",
					"id" : "obj-145",
					"index" : 0,
					"maxclass" : "inlet",
					"numinlets" : 0,
					"numoutlets" : 1,
					"outlettype" : [ "" ],
					"patching_rect" : [ 671.413086, 64.0, 30.0, 30.0 ],
					"style" : ""
				}

			}
, 			{
				"box" : 				{
					"comment" : "",
					"id" : "obj-144",
					"index" : 0,
					"maxclass" : "inlet",
					"numinlets" : 0,
					"numoutlets" : 1,
					"outlettype" : [ "" ],
					"patching_rect" : [ 630.052185, 64.0, 30.0, 30.0 ],
					"style" : ""
				}

			}
, 			{
				"box" : 				{
					"comment" : "",
					"id" : "obj-143",
					"index" : 0,
					"maxclass" : "inlet",
					"numinlets" : 0,
					"numoutlets" : 1,
					"outlettype" : [ "" ],
					"patching_rect" : [ 588.691345, 64.0, 30.0, 30.0 ],
					"style" : ""
				}

			}
, 			{
				"box" : 				{
					"comment" : "",
					"id" : "obj-142",
					"index" : 0,
					"maxclass" : "inlet",
					"numinlets" : 0,
					"numoutlets" : 1,
					"outlettype" : [ "" ],
					"patching_rect" : [ 547.330444, 64.0, 30.0, 30.0 ],
					"style" : ""
				}

			}
, 			{
				"box" : 				{
					"comment" : "",
					"id" : "obj-141",
					"index" : 0,
					"maxclass" : "inlet",
					"numinlets" : 0,
					"numoutlets" : 1,
					"outlettype" : [ "" ],
					"patching_rect" : [ 505.969604, 64.0, 30.0, 30.0 ],
					"style" : ""
				}

			}
, 			{
				"box" : 				{
					"comment" : "",
					"id" : "obj-140",
					"index" : 0,
					"maxclass" : "inlet",
					"numinlets" : 0,
					"numoutlets" : 1,
					"outlettype" : [ "" ],
					"patching_rect" : [ 464.608734, 64.0, 30.0, 30.0 ],
					"style" : ""
				}

			}
, 			{
				"box" : 				{
					"comment" : "",
					"id" : "obj-139",
					"index" : 0,
					"maxclass" : "inlet",
					"numinlets" : 0,
					"numoutlets" : 1,
					"outlettype" : [ "" ],
					"patching_rect" : [ 423.247864, 64.0, 30.0, 30.0 ],
					"style" : ""
				}

			}
, 			{
				"box" : 				{
					"comment" : "",
					"id" : "obj-138",
					"index" : 0,
					"maxclass" : "inlet",
					"numinlets" : 0,
					"numoutlets" : 1,
					"outlettype" : [ "" ],
					"patching_rect" : [ 381.886993, 64.0, 30.0, 30.0 ],
					"style" : ""
				}

			}
, 			{
				"box" : 				{
					"comment" : "",
					"id" : "obj-137",
					"index" : 0,
					"maxclass" : "inlet",
					"numinlets" : 0,
					"numoutlets" : 1,
					"outlettype" : [ "" ],
					"patching_rect" : [ 340.526093, 64.0, 30.0, 30.0 ],
					"style" : ""
				}

			}
, 			{
				"box" : 				{
					"comment" : "",
					"id" : "obj-136",
					"index" : 0,
					"maxclass" : "inlet",
					"numinlets" : 0,
					"numoutlets" : 1,
					"outlettype" : [ "" ],
					"patching_rect" : [ 299.165222, 64.0, 30.0, 30.0 ],
					"style" : ""
				}

			}
, 			{
				"box" : 				{
					"comment" : "",
					"id" : "obj-135",
					"index" : 0,
					"maxclass" : "inlet",
					"numinlets" : 0,
					"numoutlets" : 1,
					"outlettype" : [ "" ],
					"patching_rect" : [ 257.804352, 64.0, 30.0, 30.0 ],
					"style" : ""
				}

			}
, 			{
				"box" : 				{
					"comment" : "",
					"id" : "obj-134",
					"index" : 0,
					"maxclass" : "inlet",
					"numinlets" : 0,
					"numoutlets" : 1,
					"outlettype" : [ "" ],
					"patching_rect" : [ 216.443497, 64.0, 30.0, 30.0 ],
					"style" : ""
				}

			}
, 			{
				"box" : 				{
					"comment" : "",
					"id" : "obj-133",
					"index" : 0,
					"maxclass" : "inlet",
					"numinlets" : 0,
					"numoutlets" : 1,
					"outlettype" : [ "" ],
					"patching_rect" : [ 175.082611, 64.0, 30.0, 30.0 ],
					"style" : ""
				}

			}
, 			{
				"box" : 				{
					"comment" : "",
					"id" : "obj-132",
					"index" : 0,
					"maxclass" : "inlet",
					"numinlets" : 0,
					"numoutlets" : 1,
					"outlettype" : [ "" ],
					"patching_rect" : [ 133.721741, 64.0, 30.0, 30.0 ],
					"style" : ""
				}

			}
, 			{
				"box" : 				{
					"comment" : "",
					"id" : "obj-131",
					"index" : 0,
					"maxclass" : "inlet",
					"numinlets" : 0,
					"numoutlets" : 1,
					"outlettype" : [ "" ],
					"patching_rect" : [ 92.36087, 64.0, 30.0, 30.0 ],
					"style" : ""
				}

			}
, 			{
				"box" : 				{
					"comment" : "",
					"id" : "obj-130",
					"index" : 0,
					"maxclass" : "inlet",
					"numinlets" : 0,
					"numoutlets" : 1,
					"outlettype" : [ "" ],
					"patching_rect" : [ 51.0, 64.0, 30.0, 30.0 ],
					"style" : ""
				}

			}
, 			{
				"box" : 				{
					"bgcolor" : [ 0.137255, 0.152941, 0.160784, 1.0 ],
					"coldcolor" : [ 0.13, 0.42, 0.2, 1.0 ],
					"hotcolor" : [ 0.87, 0.82, 0.55, 1.0 ],
					"id" : "obj-12",
					"interval" : 20,
					"maxclass" : "meter~",
					"numinlets" : 1,
					"numleds" : 14,
					"numoutlets" : 1,
					"offcolor" : [ 0.227451, 0.243137, 0.258824, 1.0 ],
					"outlettype" : [ "float" ],
					"overloadcolor" : [ 0.8, 0.35, 0.38, 1.0 ],
					"patching_rect" : [ 511.413086, 224.0, 16.0, 64.0 ],
					"presentation" : 1,
					"presentation_rect" : [ 479.413086, 16.0, 16.0, 64.0 ],
					"prototypename" : "M4L.vert.black",
					"style" : "",
					"tepidcolor" : [ 0.23, 0.72, 0.34, 1.0 ],
					"warmcolor" : [ 0.5, 0.84, 0.58, 1.0 ]
				}

			}
, 			{
				"box" : 				{
					"bgcolor" : [ 0.137255, 0.152941, 0.160784, 1.0 ],
					"coldcolor" : [ 0.13, 0.42, 0.2, 1.0 ],
					"hotcolor" : [ 0.87, 0.82, 0.55, 1.0 ],
					"id" : "obj-13",
					"interval" : 20,
					"maxclass" : "meter~",
					"numinlets" : 1,
					"numleds" : 14,
					"numoutlets" : 1,
					"offcolor" : [ 0.227451, 0.243137, 0.258824, 1.0 ],
					"outlettype" : [ "float" ],
					"overloadcolor" : [ 0.8, 0.35, 0.38, 1.0 ],
					"patching_rect" : [ 491.413086, 224.0, 16.0, 64.0 ],
					"presentation" : 1,
					"presentation_rect" : [ 459.413086, 16.0, 16.0, 64.0 ],
					"prototypename" : "M4L.vert.black",
					"style" : "",
					"tepidcolor" : [ 0.23, 0.72, 0.34, 1.0 ],
					"warmcolor" : [ 0.5, 0.84, 0.58, 1.0 ]
				}

			}
, 			{
				"box" : 				{
					"bgcolor" : [ 0.137255, 0.152941, 0.160784, 1.0 ],
					"coldcolor" : [ 0.13, 0.42, 0.2, 1.0 ],
					"hotcolor" : [ 0.87, 0.82, 0.55, 1.0 ],
					"id" : "obj-14",
					"interval" : 20,
					"maxclass" : "meter~",
					"numinlets" : 1,
					"numleds" : 14,
					"numoutlets" : 1,
					"offcolor" : [ 0.227451, 0.243137, 0.258824, 1.0 ],
					"outlettype" : [ "float" ],
					"overloadcolor" : [ 0.8, 0.35, 0.38, 1.0 ],
					"patching_rect" : [ 471.413086, 224.0, 16.0, 64.0 ],
					"presentation" : 1,
					"presentation_rect" : [ 439.413086, 16.0, 16.0, 64.0 ],
					"prototypename" : "M4L.vert.black",
					"style" : "",
					"tepidcolor" : [ 0.23, 0.72, 0.34, 1.0 ],
					"warmcolor" : [ 0.5, 0.84, 0.58, 1.0 ]
				}

			}
, 			{
				"box" : 				{
					"bgcolor" : [ 0.137255, 0.152941, 0.160784, 1.0 ],
					"coldcolor" : [ 0.13, 0.42, 0.2, 1.0 ],
					"hotcolor" : [ 0.87, 0.82, 0.55, 1.0 ],
					"id" : "obj-16",
					"interval" : 20,
					"maxclass" : "meter~",
					"numinlets" : 1,
					"numleds" : 14,
					"numoutlets" : 1,
					"offcolor" : [ 0.227451, 0.243137, 0.258824, 1.0 ],
					"outlettype" : [ "float" ],
					"overloadcolor" : [ 0.8, 0.35, 0.38, 1.0 ],
					"patching_rect" : [ 451.413086, 224.0, 16.0, 64.0 ],
					"presentation" : 1,
					"presentation_rect" : [ 419.413086, 16.0, 16.0, 64.0 ],
					"prototypename" : "M4L.vert.black",
					"style" : "",
					"tepidcolor" : [ 0.23, 0.72, 0.34, 1.0 ],
					"warmcolor" : [ 0.5, 0.84, 0.58, 1.0 ]
				}

			}
, 			{
				"box" : 				{
					"bgcolor" : [ 0.137255, 0.152941, 0.160784, 1.0 ],
					"coldcolor" : [ 0.13, 0.42, 0.2, 1.0 ],
					"hotcolor" : [ 0.87, 0.82, 0.55, 1.0 ],
					"id" : "obj-17",
					"interval" : 20,
					"maxclass" : "meter~",
					"numinlets" : 1,
					"numleds" : 14,
					"numoutlets" : 1,
					"offcolor" : [ 0.227451, 0.243137, 0.258824, 1.0 ],
					"outlettype" : [ "float" ],
					"overloadcolor" : [ 0.8, 0.35, 0.38, 1.0 ],
					"patching_rect" : [ 431.413086, 224.0, 16.0, 64.0 ],
					"presentation" : 1,
					"presentation_rect" : [ 399.413086, 16.0, 16.0, 64.0 ],
					"prototypename" : "M4L.vert.black",
					"style" : "",
					"tepidcolor" : [ 0.23, 0.72, 0.34, 1.0 ],
					"warmcolor" : [ 0.5, 0.84, 0.58, 1.0 ]
				}

			}
, 			{
				"box" : 				{
					"bgcolor" : [ 0.137255, 0.152941, 0.160784, 1.0 ],
					"coldcolor" : [ 0.13, 0.42, 0.2, 1.0 ],
					"hotcolor" : [ 0.87, 0.82, 0.55, 1.0 ],
					"id" : "obj-18",
					"interval" : 20,
					"maxclass" : "meter~",
					"numinlets" : 1,
					"numleds" : 14,
					"numoutlets" : 1,
					"offcolor" : [ 0.227451, 0.243137, 0.258824, 1.0 ],
					"outlettype" : [ "float" ],
					"overloadcolor" : [ 0.8, 0.35, 0.38, 1.0 ],
					"patching_rect" : [ 411.413086, 224.0, 16.0, 64.0 ],
					"presentation" : 1,
					"presentation_rect" : [ 379.413086, 16.0, 16.0, 64.0 ],
					"prototypename" : "M4L.vert.black",
					"style" : "",
					"tepidcolor" : [ 0.23, 0.72, 0.34, 1.0 ],
					"warmcolor" : [ 0.5, 0.84, 0.58, 1.0 ]
				}

			}
, 			{
				"box" : 				{
					"bgcolor" : [ 0.137255, 0.152941, 0.160784, 1.0 ],
					"coldcolor" : [ 0.13, 0.42, 0.2, 1.0 ],
					"hotcolor" : [ 0.87, 0.82, 0.55, 1.0 ],
					"id" : "obj-19",
					"interval" : 20,
					"maxclass" : "meter~",
					"numinlets" : 1,
					"numleds" : 14,
					"numoutlets" : 1,
					"offcolor" : [ 0.227451, 0.243137, 0.258824, 1.0 ],
					"outlettype" : [ "float" ],
					"overloadcolor" : [ 0.8, 0.35, 0.38, 1.0 ],
					"patching_rect" : [ 391.413086, 224.0, 16.0, 64.0 ],
					"presentation" : 1,
					"presentation_rect" : [ 359.413086, 16.0, 16.0, 64.0 ],
					"prototypename" : "M4L.vert.black",
					"style" : "",
					"tepidcolor" : [ 0.23, 0.72, 0.34, 1.0 ],
					"warmcolor" : [ 0.5, 0.84, 0.58, 1.0 ]
				}

			}
, 			{
				"box" : 				{
					"fontname" : "Lato",
					"fontsize" : 10.0,
					"id" : "obj-44",
					"maxclass" : "comment",
					"numinlets" : 1,
					"numoutlets" : 0,
					"patching_rect" : [ 509.413086, 288.0, 20.0, 18.0 ],
					"presentation" : 1,
					"presentation_rect" : [ 477.413086, 80.0, 20.0, 18.0 ],
					"style" : "",
					"text" : "24",
					"textcolor" : [ 1.0, 1.0, 1.0, 1.0 ],
					"textjustification" : 1
				}

			}
, 			{
				"box" : 				{
					"fontname" : "Lato",
					"fontsize" : 10.0,
					"id" : "obj-46",
					"maxclass" : "comment",
					"numinlets" : 1,
					"numoutlets" : 0,
					"patching_rect" : [ 489.413086, 288.0, 20.0, 18.0 ],
					"presentation" : 1,
					"presentation_rect" : [ 457.413086, 80.0, 20.0, 18.0 ],
					"style" : "",
					"text" : "23",
					"textcolor" : [ 1.0, 1.0, 1.0, 1.0 ],
					"textjustification" : 1
				}

			}
, 			{
				"box" : 				{
					"fontname" : "Lato",
					"fontsize" : 10.0,
					"id" : "obj-47",
					"maxclass" : "comment",
					"numinlets" : 1,
					"numoutlets" : 0,
					"patching_rect" : [ 469.413086, 288.0, 20.0, 18.0 ],
					"presentation" : 1,
					"presentation_rect" : [ 437.413086, 80.0, 20.0, 18.0 ],
					"style" : "",
					"text" : "22",
					"textcolor" : [ 1.0, 1.0, 1.0, 1.0 ],
					"textjustification" : 1
				}

			}
, 			{
				"box" : 				{
					"fontname" : "Lato",
					"fontsize" : 10.0,
					"id" : "obj-48",
					"maxclass" : "comment",
					"numinlets" : 1,
					"numoutlets" : 0,
					"patching_rect" : [ 449.413086, 288.0, 20.0, 18.0 ],
					"presentation" : 1,
					"presentation_rect" : [ 417.413086, 80.0, 20.0, 18.0 ],
					"style" : "",
					"text" : "21",
					"textcolor" : [ 1.0, 1.0, 1.0, 1.0 ],
					"textjustification" : 1
				}

			}
, 			{
				"box" : 				{
					"fontname" : "Lato",
					"fontsize" : 10.0,
					"id" : "obj-49",
					"maxclass" : "comment",
					"numinlets" : 1,
					"numoutlets" : 0,
					"patching_rect" : [ 429.413086, 288.0, 20.0, 18.0 ],
					"presentation" : 1,
					"presentation_rect" : [ 397.413086, 80.0, 20.0, 18.0 ],
					"style" : "",
					"text" : "20",
					"textcolor" : [ 1.0, 1.0, 1.0, 1.0 ],
					"textjustification" : 1
				}

			}
, 			{
				"box" : 				{
					"fontname" : "Lato",
					"fontsize" : 10.0,
					"id" : "obj-50",
					"maxclass" : "comment",
					"numinlets" : 1,
					"numoutlets" : 0,
					"patching_rect" : [ 409.413086, 288.0, 20.0, 18.0 ],
					"presentation" : 1,
					"presentation_rect" : [ 377.413086, 80.0, 20.0, 18.0 ],
					"style" : "",
					"text" : "19",
					"textcolor" : [ 1.0, 1.0, 1.0, 1.0 ],
					"textjustification" : 1
				}

			}
, 			{
				"box" : 				{
					"fontname" : "Lato",
					"fontsize" : 10.0,
					"id" : "obj-51",
					"maxclass" : "comment",
					"numinlets" : 1,
					"numoutlets" : 0,
					"patching_rect" : [ 389.413086, 288.0, 20.0, 18.0 ],
					"presentation" : 1,
					"presentation_rect" : [ 357.413086, 80.0, 20.0, 18.0 ],
					"style" : "",
					"text" : "18",
					"textcolor" : [ 1.0, 1.0, 1.0, 1.0 ],
					"textjustification" : 1
				}

			}
, 			{
				"box" : 				{
					"fontname" : "Lato",
					"fontsize" : 10.0,
					"id" : "obj-52",
					"maxclass" : "comment",
					"numinlets" : 1,
					"numoutlets" : 0,
					"patching_rect" : [ 369.413086, 288.0, 20.0, 18.0 ],
					"presentation" : 1,
					"presentation_rect" : [ 337.413086, 80.0, 20.0, 18.0 ],
					"style" : "",
					"text" : "17",
					"textcolor" : [ 1.0, 1.0, 1.0, 1.0 ],
					"textjustification" : 1
				}

			}
, 			{
				"box" : 				{
					"bgcolor" : [ 0.137255, 0.152941, 0.160784, 1.0 ],
					"coldcolor" : [ 0.13, 0.42, 0.2, 1.0 ],
					"hotcolor" : [ 0.87, 0.82, 0.55, 1.0 ],
					"id" : "obj-53",
					"interval" : 20,
					"maxclass" : "meter~",
					"numinlets" : 1,
					"numleds" : 14,
					"numoutlets" : 1,
					"offcolor" : [ 0.227451, 0.243137, 0.258824, 1.0 ],
					"outlettype" : [ "float" ],
					"overloadcolor" : [ 0.8, 0.35, 0.38, 1.0 ],
					"patching_rect" : [ 371.0, 224.0, 16.0, 64.0 ],
					"presentation" : 1,
					"presentation_rect" : [ 339.0, 16.0, 16.0, 64.0 ],
					"prototypename" : "M4L.vert.black",
					"style" : "",
					"tepidcolor" : [ 0.23, 0.72, 0.34, 1.0 ],
					"warmcolor" : [ 0.5, 0.84, 0.58, 1.0 ]
				}

			}
, 			{
				"box" : 				{
					"bgcolor" : [ 0.137255, 0.152941, 0.160784, 1.0 ],
					"coldcolor" : [ 0.13, 0.42, 0.2, 1.0 ],
					"hotcolor" : [ 0.87, 0.82, 0.55, 1.0 ],
					"id" : "obj-64",
					"interval" : 20,
					"maxclass" : "meter~",
					"numinlets" : 1,
					"numleds" : 14,
					"numoutlets" : 1,
					"offcolor" : [ 0.227451, 0.243137, 0.258824, 1.0 ],
					"outlettype" : [ "float" ],
					"overloadcolor" : [ 0.8, 0.35, 0.38, 1.0 ],
					"patching_rect" : [ 351.413086, 224.0, 16.0, 64.0 ],
					"presentation" : 1,
					"presentation_rect" : [ 319.413086, 16.0, 16.0, 64.0 ],
					"prototypename" : "M4L.vert.black",
					"style" : "",
					"tepidcolor" : [ 0.23, 0.72, 0.34, 1.0 ],
					"warmcolor" : [ 0.5, 0.84, 0.58, 1.0 ]
				}

			}
, 			{
				"box" : 				{
					"bgcolor" : [ 0.137255, 0.152941, 0.160784, 1.0 ],
					"coldcolor" : [ 0.13, 0.42, 0.2, 1.0 ],
					"hotcolor" : [ 0.87, 0.82, 0.55, 1.0 ],
					"id" : "obj-66",
					"interval" : 20,
					"maxclass" : "meter~",
					"numinlets" : 1,
					"numleds" : 14,
					"numoutlets" : 1,
					"offcolor" : [ 0.227451, 0.243137, 0.258824, 1.0 ],
					"outlettype" : [ "float" ],
					"overloadcolor" : [ 0.8, 0.35, 0.38, 1.0 ],
					"patching_rect" : [ 331.413086, 224.0, 16.0, 64.0 ],
					"presentation" : 1,
					"presentation_rect" : [ 299.413086, 16.0, 16.0, 64.0 ],
					"prototypename" : "M4L.vert.black",
					"style" : "",
					"tepidcolor" : [ 0.23, 0.72, 0.34, 1.0 ],
					"warmcolor" : [ 0.5, 0.84, 0.58, 1.0 ]
				}

			}
, 			{
				"box" : 				{
					"bgcolor" : [ 0.137255, 0.152941, 0.160784, 1.0 ],
					"coldcolor" : [ 0.13, 0.42, 0.2, 1.0 ],
					"hotcolor" : [ 0.87, 0.82, 0.55, 1.0 ],
					"id" : "obj-67",
					"interval" : 20,
					"maxclass" : "meter~",
					"numinlets" : 1,
					"numleds" : 14,
					"numoutlets" : 1,
					"offcolor" : [ 0.227451, 0.243137, 0.258824, 1.0 ],
					"outlettype" : [ "float" ],
					"overloadcolor" : [ 0.8, 0.35, 0.38, 1.0 ],
					"patching_rect" : [ 311.413086, 224.0, 16.0, 64.0 ],
					"presentation" : 1,
					"presentation_rect" : [ 279.413086, 16.0, 16.0, 64.0 ],
					"prototypename" : "M4L.vert.black",
					"style" : "",
					"tepidcolor" : [ 0.23, 0.72, 0.34, 1.0 ],
					"warmcolor" : [ 0.5, 0.84, 0.58, 1.0 ]
				}

			}
, 			{
				"box" : 				{
					"bgcolor" : [ 0.137255, 0.152941, 0.160784, 1.0 ],
					"coldcolor" : [ 0.13, 0.42, 0.2, 1.0 ],
					"hotcolor" : [ 0.87, 0.82, 0.55, 1.0 ],
					"id" : "obj-68",
					"interval" : 20,
					"maxclass" : "meter~",
					"numinlets" : 1,
					"numleds" : 14,
					"numoutlets" : 1,
					"offcolor" : [ 0.227451, 0.243137, 0.258824, 1.0 ],
					"outlettype" : [ "float" ],
					"overloadcolor" : [ 0.8, 0.35, 0.38, 1.0 ],
					"patching_rect" : [ 291.413086, 224.0, 16.0, 64.0 ],
					"presentation" : 1,
					"presentation_rect" : [ 259.413086, 16.0, 16.0, 64.0 ],
					"prototypename" : "M4L.vert.black",
					"style" : "",
					"tepidcolor" : [ 0.23, 0.72, 0.34, 1.0 ],
					"warmcolor" : [ 0.5, 0.84, 0.58, 1.0 ]
				}

			}
, 			{
				"box" : 				{
					"bgcolor" : [ 0.137255, 0.152941, 0.160784, 1.0 ],
					"coldcolor" : [ 0.13, 0.42, 0.2, 1.0 ],
					"hotcolor" : [ 0.87, 0.82, 0.55, 1.0 ],
					"id" : "obj-70",
					"interval" : 20,
					"maxclass" : "meter~",
					"numinlets" : 1,
					"numleds" : 14,
					"numoutlets" : 1,
					"offcolor" : [ 0.227451, 0.243137, 0.258824, 1.0 ],
					"outlettype" : [ "float" ],
					"overloadcolor" : [ 0.8, 0.35, 0.38, 1.0 ],
					"patching_rect" : [ 271.413086, 224.0, 16.0, 64.0 ],
					"presentation" : 1,
					"presentation_rect" : [ 239.413086, 16.0, 16.0, 64.0 ],
					"prototypename" : "M4L.vert.black",
					"style" : "",
					"tepidcolor" : [ 0.23, 0.72, 0.34, 1.0 ],
					"warmcolor" : [ 0.5, 0.84, 0.58, 1.0 ]
				}

			}
, 			{
				"box" : 				{
					"bgcolor" : [ 0.137255, 0.152941, 0.160784, 1.0 ],
					"coldcolor" : [ 0.13, 0.42, 0.2, 1.0 ],
					"hotcolor" : [ 0.87, 0.82, 0.55, 1.0 ],
					"id" : "obj-71",
					"interval" : 20,
					"maxclass" : "meter~",
					"numinlets" : 1,
					"numleds" : 14,
					"numoutlets" : 1,
					"offcolor" : [ 0.227451, 0.243137, 0.258824, 1.0 ],
					"outlettype" : [ "float" ],
					"overloadcolor" : [ 0.8, 0.35, 0.38, 1.0 ],
					"patching_rect" : [ 251.413086, 224.0, 16.0, 64.0 ],
					"presentation" : 1,
					"presentation_rect" : [ 219.413086, 16.0, 16.0, 64.0 ],
					"prototypename" : "M4L.vert.black",
					"style" : "",
					"tepidcolor" : [ 0.23, 0.72, 0.34, 1.0 ],
					"warmcolor" : [ 0.5, 0.84, 0.58, 1.0 ]
				}

			}
, 			{
				"box" : 				{
					"bgcolor" : [ 0.137255, 0.152941, 0.160784, 1.0 ],
					"coldcolor" : [ 0.13, 0.42, 0.2, 1.0 ],
					"hotcolor" : [ 0.87, 0.82, 0.55, 1.0 ],
					"id" : "obj-72",
					"interval" : 20,
					"maxclass" : "meter~",
					"numinlets" : 1,
					"numleds" : 14,
					"numoutlets" : 1,
					"offcolor" : [ 0.227451, 0.243137, 0.258824, 1.0 ],
					"outlettype" : [ "float" ],
					"overloadcolor" : [ 0.8, 0.35, 0.38, 1.0 ],
					"patching_rect" : [ 231.413086, 224.0, 16.0, 64.0 ],
					"presentation" : 1,
					"presentation_rect" : [ 199.413086, 16.0, 16.0, 64.0 ],
					"prototypename" : "M4L.vert.black",
					"style" : "",
					"tepidcolor" : [ 0.23, 0.72, 0.34, 1.0 ],
					"warmcolor" : [ 0.5, 0.84, 0.58, 1.0 ]
				}

			}
, 			{
				"box" : 				{
					"bgcolor" : [ 0.137255, 0.152941, 0.160784, 1.0 ],
					"coldcolor" : [ 0.13, 0.42, 0.2, 1.0 ],
					"hotcolor" : [ 0.87, 0.82, 0.55, 1.0 ],
					"id" : "obj-74",
					"interval" : 20,
					"maxclass" : "meter~",
					"numinlets" : 1,
					"numleds" : 14,
					"numoutlets" : 1,
					"offcolor" : [ 0.227451, 0.243137, 0.258824, 1.0 ],
					"outlettype" : [ "float" ],
					"overloadcolor" : [ 0.8, 0.35, 0.38, 1.0 ],
					"patching_rect" : [ 211.0, 224.0, 16.0, 64.0 ],
					"presentation" : 1,
					"presentation_rect" : [ 179.0, 16.0, 16.0, 64.0 ],
					"prototypename" : "M4L.vert.black",
					"style" : "",
					"tepidcolor" : [ 0.23, 0.72, 0.34, 1.0 ],
					"warmcolor" : [ 0.5, 0.84, 0.58, 1.0 ]
				}

			}
, 			{
				"box" : 				{
					"bgcolor" : [ 0.137255, 0.152941, 0.160784, 1.0 ],
					"coldcolor" : [ 0.13, 0.42, 0.2, 1.0 ],
					"hotcolor" : [ 0.87, 0.82, 0.55, 1.0 ],
					"id" : "obj-60",
					"interval" : 20,
					"maxclass" : "meter~",
					"numinlets" : 1,
					"numleds" : 14,
					"numoutlets" : 1,
					"offcolor" : [ 0.227451, 0.243137, 0.258824, 1.0 ],
					"outlettype" : [ "float" ],
					"overloadcolor" : [ 0.8, 0.35, 0.38, 1.0 ],
					"patching_rect" : [ 191.413086, 224.0, 16.0, 64.0 ],
					"presentation" : 1,
					"presentation_rect" : [ 159.413086, 16.0, 16.0, 64.0 ],
					"prototypename" : "M4L.vert.black",
					"style" : "",
					"tepidcolor" : [ 0.23, 0.72, 0.34, 1.0 ],
					"warmcolor" : [ 0.5, 0.84, 0.58, 1.0 ]
				}

			}
, 			{
				"box" : 				{
					"bgcolor" : [ 0.137255, 0.152941, 0.160784, 1.0 ],
					"coldcolor" : [ 0.13, 0.42, 0.2, 1.0 ],
					"hotcolor" : [ 0.87, 0.82, 0.55, 1.0 ],
					"id" : "obj-61",
					"interval" : 20,
					"maxclass" : "meter~",
					"numinlets" : 1,
					"numleds" : 14,
					"numoutlets" : 1,
					"offcolor" : [ 0.227451, 0.243137, 0.258824, 1.0 ],
					"outlettype" : [ "float" ],
					"overloadcolor" : [ 0.8, 0.35, 0.38, 1.0 ],
					"patching_rect" : [ 171.413086, 224.0, 16.0, 64.0 ],
					"presentation" : 1,
					"presentation_rect" : [ 139.413086, 16.0, 16.0, 64.0 ],
					"prototypename" : "M4L.vert.black",
					"style" : "",
					"tepidcolor" : [ 0.23, 0.72, 0.34, 1.0 ],
					"warmcolor" : [ 0.5, 0.84, 0.58, 1.0 ]
				}

			}
, 			{
				"box" : 				{
					"bgcolor" : [ 0.137255, 0.152941, 0.160784, 1.0 ],
					"coldcolor" : [ 0.13, 0.42, 0.2, 1.0 ],
					"hotcolor" : [ 0.87, 0.82, 0.55, 1.0 ],
					"id" : "obj-63",
					"interval" : 20,
					"maxclass" : "meter~",
					"numinlets" : 1,
					"numleds" : 14,
					"numoutlets" : 1,
					"offcolor" : [ 0.227451, 0.243137, 0.258824, 1.0 ],
					"outlettype" : [ "float" ],
					"overloadcolor" : [ 0.8, 0.35, 0.38, 1.0 ],
					"patching_rect" : [ 151.413086, 224.0, 16.0, 64.0 ],
					"presentation" : 1,
					"presentation_rect" : [ 119.413086, 16.0, 16.0, 64.0 ],
					"prototypename" : "M4L.vert.black",
					"style" : "",
					"tepidcolor" : [ 0.23, 0.72, 0.34, 1.0 ],
					"warmcolor" : [ 0.5, 0.84, 0.58, 1.0 ]
				}

			}
, 			{
				"box" : 				{
					"bgcolor" : [ 0.137255, 0.152941, 0.160784, 1.0 ],
					"coldcolor" : [ 0.13, 0.42, 0.2, 1.0 ],
					"hotcolor" : [ 0.87, 0.82, 0.55, 1.0 ],
					"id" : "obj-45",
					"interval" : 20,
					"maxclass" : "meter~",
					"numinlets" : 1,
					"numleds" : 14,
					"numoutlets" : 1,
					"offcolor" : [ 0.227451, 0.243137, 0.258824, 1.0 ],
					"outlettype" : [ "float" ],
					"overloadcolor" : [ 0.8, 0.35, 0.38, 1.0 ],
					"patching_rect" : [ 131.413086, 224.0, 16.0, 64.0 ],
					"presentation" : 1,
					"presentation_rect" : [ 99.413086, 16.0, 16.0, 64.0 ],
					"prototypename" : "M4L.vert.black",
					"style" : "",
					"tepidcolor" : [ 0.23, 0.72, 0.34, 1.0 ],
					"warmcolor" : [ 0.5, 0.84, 0.58, 1.0 ]
				}

			}
, 			{
				"box" : 				{
					"bgcolor" : [ 0.137255, 0.152941, 0.160784, 1.0 ],
					"coldcolor" : [ 0.13, 0.42, 0.2, 1.0 ],
					"hotcolor" : [ 0.87, 0.82, 0.55, 1.0 ],
					"id" : "obj-38",
					"interval" : 20,
					"maxclass" : "meter~",
					"numinlets" : 1,
					"numleds" : 14,
					"numoutlets" : 1,
					"offcolor" : [ 0.227451, 0.243137, 0.258824, 1.0 ],
					"outlettype" : [ "float" ],
					"overloadcolor" : [ 0.8, 0.35, 0.38, 1.0 ],
					"patching_rect" : [ 111.413086, 224.0, 16.0, 64.0 ],
					"presentation" : 1,
					"presentation_rect" : [ 79.413086, 16.0, 16.0, 64.0 ],
					"prototypename" : "M4L.vert.black",
					"style" : "",
					"tepidcolor" : [ 0.23, 0.72, 0.34, 1.0 ],
					"warmcolor" : [ 0.5, 0.84, 0.58, 1.0 ]
				}

			}
, 			{
				"box" : 				{
					"bgcolor" : [ 0.137255, 0.152941, 0.160784, 1.0 ],
					"coldcolor" : [ 0.13, 0.42, 0.2, 1.0 ],
					"hotcolor" : [ 0.87, 0.82, 0.55, 1.0 ],
					"id" : "obj-37",
					"interval" : 20,
					"maxclass" : "meter~",
					"numinlets" : 1,
					"numleds" : 14,
					"numoutlets" : 1,
					"offcolor" : [ 0.227451, 0.243137, 0.258824, 1.0 ],
					"outlettype" : [ "float" ],
					"overloadcolor" : [ 0.8, 0.35, 0.38, 1.0 ],
					"patching_rect" : [ 91.413086, 224.0, 16.0, 64.0 ],
					"presentation" : 1,
					"presentation_rect" : [ 59.413086, 16.0, 16.0, 64.0 ],
					"prototypename" : "M4L.vert.black",
					"style" : "",
					"tepidcolor" : [ 0.23, 0.72, 0.34, 1.0 ],
					"warmcolor" : [ 0.5, 0.84, 0.58, 1.0 ]
				}

			}
, 			{
				"box" : 				{
					"bgcolor" : [ 0.137255, 0.152941, 0.160784, 1.0 ],
					"coldcolor" : [ 0.13, 0.42, 0.2, 1.0 ],
					"hotcolor" : [ 0.87, 0.82, 0.55, 1.0 ],
					"id" : "obj-35",
					"interval" : 20,
					"maxclass" : "meter~",
					"numinlets" : 1,
					"numleds" : 14,
					"numoutlets" : 1,
					"offcolor" : [ 0.227451, 0.243137, 0.258824, 1.0 ],
					"outlettype" : [ "float" ],
					"overloadcolor" : [ 0.8, 0.35, 0.38, 1.0 ],
					"patching_rect" : [ 71.413086, 224.0, 16.0, 64.0 ],
					"presentation" : 1,
					"presentation_rect" : [ 39.413086, 16.0, 16.0, 64.0 ],
					"prototypename" : "M4L.vert.black",
					"style" : "",
					"tepidcolor" : [ 0.23, 0.72, 0.34, 1.0 ],
					"warmcolor" : [ 0.5, 0.84, 0.58, 1.0 ]
				}

			}
, 			{
				"box" : 				{
					"fontname" : "Lato",
					"fontsize" : 10.0,
					"id" : "obj-7",
					"maxclass" : "comment",
					"numinlets" : 1,
					"numoutlets" : 0,
					"patching_rect" : [ 349.413086, 288.0, 20.0, 18.0 ],
					"presentation" : 1,
					"presentation_rect" : [ 317.413086, 80.0, 20.0, 18.0 ],
					"style" : "",
					"text" : "16",
					"textcolor" : [ 1.0, 1.0, 1.0, 1.0 ],
					"textjustification" : 1
				}

			}
, 			{
				"box" : 				{
					"fontname" : "Lato",
					"fontsize" : 10.0,
					"id" : "obj-15",
					"maxclass" : "comment",
					"numinlets" : 1,
					"numoutlets" : 0,
					"patching_rect" : [ 329.413086, 288.0, 20.0, 18.0 ],
					"presentation" : 1,
					"presentation_rect" : [ 297.413086, 80.0, 20.0, 18.0 ],
					"style" : "",
					"text" : "15",
					"textcolor" : [ 1.0, 1.0, 1.0, 1.0 ],
					"textjustification" : 1
				}

			}
, 			{
				"box" : 				{
					"fontname" : "Lato",
					"fontsize" : 10.0,
					"id" : "obj-10",
					"maxclass" : "comment",
					"numinlets" : 1,
					"numoutlets" : 0,
					"patching_rect" : [ 309.413086, 288.0, 20.0, 18.0 ],
					"presentation" : 1,
					"presentation_rect" : [ 277.413086, 80.0, 20.0, 18.0 ],
					"style" : "",
					"text" : "14",
					"textcolor" : [ 1.0, 1.0, 1.0, 1.0 ],
					"textjustification" : 1
				}

			}
, 			{
				"box" : 				{
					"fontname" : "Lato",
					"fontsize" : 10.0,
					"id" : "obj-20",
					"maxclass" : "comment",
					"numinlets" : 1,
					"numoutlets" : 0,
					"patching_rect" : [ 289.413086, 288.0, 20.0, 18.0 ],
					"presentation" : 1,
					"presentation_rect" : [ 257.413086, 80.0, 20.0, 18.0 ],
					"style" : "",
					"text" : "13",
					"textcolor" : [ 1.0, 1.0, 1.0, 1.0 ],
					"textjustification" : 1
				}

			}
, 			{
				"box" : 				{
					"fontname" : "Lato",
					"fontsize" : 10.0,
					"id" : "obj-22",
					"maxclass" : "comment",
					"numinlets" : 1,
					"numoutlets" : 0,
					"patching_rect" : [ 269.413086, 288.0, 20.0, 18.0 ],
					"presentation" : 1,
					"presentation_rect" : [ 237.413086, 80.0, 20.0, 18.0 ],
					"style" : "",
					"text" : "12",
					"textcolor" : [ 1.0, 1.0, 1.0, 1.0 ],
					"textjustification" : 1
				}

			}
, 			{
				"box" : 				{
					"fontname" : "Lato",
					"fontsize" : 10.0,
					"id" : "obj-23",
					"maxclass" : "comment",
					"numinlets" : 1,
					"numoutlets" : 0,
					"patching_rect" : [ 249.413086, 288.0, 20.0, 18.0 ],
					"presentation" : 1,
					"presentation_rect" : [ 217.413086, 80.0, 20.0, 18.0 ],
					"style" : "",
					"text" : "11",
					"textcolor" : [ 1.0, 1.0, 1.0, 1.0 ],
					"textjustification" : 1
				}

			}
, 			{
				"box" : 				{
					"fontname" : "Lato",
					"fontsize" : 10.0,
					"id" : "obj-24",
					"maxclass" : "comment",
					"numinlets" : 1,
					"numoutlets" : 0,
					"patching_rect" : [ 229.413086, 288.0, 20.0, 18.0 ],
					"presentation" : 1,
					"presentation_rect" : [ 197.413086, 80.0, 20.0, 18.0 ],
					"style" : "",
					"text" : "10",
					"textcolor" : [ 1.0, 1.0, 1.0, 1.0 ],
					"textjustification" : 1
				}

			}
, 			{
				"box" : 				{
					"fontname" : "Lato",
					"fontsize" : 10.0,
					"id" : "obj-25",
					"maxclass" : "comment",
					"numinlets" : 1,
					"numoutlets" : 0,
					"patching_rect" : [ 209.413086, 288.0, 20.0, 18.0 ],
					"presentation" : 1,
					"presentation_rect" : [ 177.413086, 80.0, 20.0, 18.0 ],
					"style" : "",
					"text" : "9",
					"textcolor" : [ 1.0, 1.0, 1.0, 1.0 ],
					"textjustification" : 1
				}

			}
, 			{
				"box" : 				{
					"fontname" : "Lato",
					"fontsize" : 10.0,
					"id" : "obj-26",
					"maxclass" : "comment",
					"numinlets" : 1,
					"numoutlets" : 0,
					"patching_rect" : [ 189.413086, 288.0, 20.0, 18.0 ],
					"presentation" : 1,
					"presentation_rect" : [ 157.413086, 80.0, 20.0, 18.0 ],
					"style" : "",
					"text" : "8",
					"textcolor" : [ 1.0, 1.0, 1.0, 1.0 ],
					"textjustification" : 1
				}

			}
, 			{
				"box" : 				{
					"fontname" : "Lato",
					"fontsize" : 10.0,
					"id" : "obj-27",
					"maxclass" : "comment",
					"numinlets" : 1,
					"numoutlets" : 0,
					"patching_rect" : [ 169.413086, 288.0, 20.0, 18.0 ],
					"presentation" : 1,
					"presentation_rect" : [ 137.413086, 80.0, 20.0, 18.0 ],
					"style" : "",
					"text" : "7",
					"textcolor" : [ 1.0, 1.0, 1.0, 1.0 ],
					"textjustification" : 1
				}

			}
, 			{
				"box" : 				{
					"fontname" : "Lato",
					"fontsize" : 10.0,
					"id" : "obj-28",
					"maxclass" : "comment",
					"numinlets" : 1,
					"numoutlets" : 0,
					"patching_rect" : [ 149.413086, 288.0, 20.0, 18.0 ],
					"presentation" : 1,
					"presentation_rect" : [ 117.413086, 80.0, 20.0, 18.0 ],
					"style" : "",
					"text" : "6",
					"textcolor" : [ 1.0, 1.0, 1.0, 1.0 ],
					"textjustification" : 1
				}

			}
, 			{
				"box" : 				{
					"fontname" : "Lato",
					"fontsize" : 10.0,
					"id" : "obj-29",
					"maxclass" : "comment",
					"numinlets" : 1,
					"numoutlets" : 0,
					"patching_rect" : [ 129.413086, 288.0, 20.0, 18.0 ],
					"presentation" : 1,
					"presentation_rect" : [ 97.413086, 80.0, 20.0, 18.0 ],
					"style" : "",
					"text" : "5",
					"textcolor" : [ 1.0, 1.0, 1.0, 1.0 ],
					"textjustification" : 1
				}

			}
, 			{
				"box" : 				{
					"fontname" : "Lato",
					"fontsize" : 10.0,
					"id" : "obj-30",
					"maxclass" : "comment",
					"numinlets" : 1,
					"numoutlets" : 0,
					"patching_rect" : [ 109.413086, 288.0, 20.0, 18.0 ],
					"presentation" : 1,
					"presentation_rect" : [ 77.413086, 80.0, 20.0, 18.0 ],
					"style" : "",
					"text" : "4",
					"textcolor" : [ 1.0, 1.0, 1.0, 1.0 ],
					"textjustification" : 1
				}

			}
, 			{
				"box" : 				{
					"fontname" : "Lato",
					"fontsize" : 10.0,
					"id" : "obj-31",
					"maxclass" : "comment",
					"numinlets" : 1,
					"numoutlets" : 0,
					"patching_rect" : [ 89.413086, 288.0, 20.0, 18.0 ],
					"presentation" : 1,
					"presentation_rect" : [ 57.413086, 80.0, 20.0, 18.0 ],
					"style" : "",
					"text" : "3",
					"textcolor" : [ 1.0, 1.0, 1.0, 1.0 ],
					"textjustification" : 1
				}

			}
, 			{
				"box" : 				{
					"fontname" : "Lato",
					"fontsize" : 10.0,
					"id" : "obj-32",
					"maxclass" : "comment",
					"numinlets" : 1,
					"numoutlets" : 0,
					"patching_rect" : [ 69.413086, 288.0, 20.0, 18.0 ],
					"presentation" : 1,
					"presentation_rect" : [ 37.413086, 80.0, 20.0, 18.0 ],
					"style" : "",
					"text" : "2",
					"textcolor" : [ 1.0, 1.0, 1.0, 1.0 ],
					"textjustification" : 1
				}

			}
, 			{
				"box" : 				{
					"fontname" : "Lato",
					"fontsize" : 10.0,
					"id" : "obj-34",
					"maxclass" : "comment",
					"numinlets" : 1,
					"numoutlets" : 0,
					"patching_rect" : [ 49.413086, 288.0, 20.0, 18.0 ],
					"presentation" : 1,
					"presentation_rect" : [ 17.413086, 80.0, 20.0, 18.0 ],
					"style" : "",
					"text" : "1",
					"textcolor" : [ 1.0, 1.0, 1.0, 1.0 ],
					"textjustification" : 1
				}

			}
, 			{
				"box" : 				{
					"bgcolor" : [ 0.137255, 0.152941, 0.160784, 1.0 ],
					"coldcolor" : [ 0.13, 0.42, 0.2, 1.0 ],
					"hotcolor" : [ 0.87, 0.82, 0.55, 1.0 ],
					"id" : "obj-222",
					"interval" : 20,
					"maxclass" : "meter~",
					"numinlets" : 1,
					"numleds" : 14,
					"numoutlets" : 1,
					"offcolor" : [ 0.227451, 0.243137, 0.258824, 1.0 ],
					"outlettype" : [ "float" ],
					"overloadcolor" : [ 0.8, 0.35, 0.38, 1.0 ],
					"patching_rect" : [ 51.0, 224.0, 16.0, 64.0 ],
					"presentation" : 1,
					"presentation_rect" : [ 19.0, 16.0, 16.0, 64.0 ],
					"prototypename" : "M4L.vert.black",
					"style" : "",
					"tepidcolor" : [ 0.23, 0.72, 0.34, 1.0 ],
					"warmcolor" : [ 0.5, 0.84, 0.58, 1.0 ]
				}

			}
, 			{
				"box" : 				{
					"angle" : 270.0,
					"bgcolor" : [ 0.137255, 0.152941, 0.160784, 1.0 ],
					"id" : "obj-2",
					"maxclass" : "panel",
					"mode" : 0,
					"numinlets" : 1,
					"numoutlets" : 0,
					"patching_rect" : [ 32.0, 208.0, 672.0, 104.0 ],
					"presentation" : 1,
					"presentation_rect" : [ 0.0, 0.0, 672.0, 104.0 ],
					"proportion" : 0.39,
					"rounded" : 0,
					"style" : ""
				}

			}
 ],
		"lines" : [ 			{
				"patchline" : 				{
					"destination" : [ "obj-222", 0 ],
					"disabled" : 0,
					"hidden" : 0,
					"source" : [ "obj-130", 0 ]
				}

			}
, 			{
				"patchline" : 				{
					"destination" : [ "obj-35", 0 ],
					"disabled" : 0,
					"hidden" : 0,
					"source" : [ "obj-131", 0 ]
				}

			}
, 			{
				"patchline" : 				{
					"destination" : [ "obj-37", 0 ],
					"disabled" : 0,
					"hidden" : 0,
					"source" : [ "obj-132", 0 ]
				}

			}
, 			{
				"patchline" : 				{
					"destination" : [ "obj-38", 0 ],
					"disabled" : 0,
					"hidden" : 0,
					"source" : [ "obj-133", 0 ]
				}

			}
, 			{
				"patchline" : 				{
					"destination" : [ "obj-45", 0 ],
					"disabled" : 0,
					"hidden" : 0,
					"source" : [ "obj-134", 0 ]
				}

			}
, 			{
				"patchline" : 				{
					"destination" : [ "obj-63", 0 ],
					"disabled" : 0,
					"hidden" : 0,
					"source" : [ "obj-135", 0 ]
				}

			}
, 			{
				"patchline" : 				{
					"destination" : [ "obj-61", 0 ],
					"disabled" : 0,
					"hidden" : 0,
					"source" : [ "obj-136", 0 ]
				}

			}
, 			{
				"patchline" : 				{
					"destination" : [ "obj-60", 0 ],
					"disabled" : 0,
					"hidden" : 0,
					"source" : [ "obj-137", 0 ]
				}

			}
, 			{
				"patchline" : 				{
					"destination" : [ "obj-74", 0 ],
					"disabled" : 0,
					"hidden" : 0,
					"source" : [ "obj-138", 0 ]
				}

			}
, 			{
				"patchline" : 				{
					"destination" : [ "obj-72", 0 ],
					"disabled" : 0,
					"hidden" : 0,
					"source" : [ "obj-139", 0 ]
				}

			}
, 			{
				"patchline" : 				{
					"destination" : [ "obj-71", 0 ],
					"disabled" : 0,
					"hidden" : 0,
					"source" : [ "obj-140", 0 ]
				}

			}
, 			{
				"patchline" : 				{
					"destination" : [ "obj-70", 0 ],
					"disabled" : 0,
					"hidden" : 0,
					"source" : [ "obj-141", 0 ]
				}

			}
, 			{
				"patchline" : 				{
					"destination" : [ "obj-68", 0 ],
					"disabled" : 0,
					"hidden" : 0,
					"source" : [ "obj-142", 0 ]
				}

			}
, 			{
				"patchline" : 				{
					"destination" : [ "obj-67", 0 ],
					"disabled" : 0,
					"hidden" : 0,
					"source" : [ "obj-143", 0 ]
				}

			}
, 			{
				"patchline" : 				{
					"destination" : [ "obj-66", 0 ],
					"disabled" : 0,
					"hidden" : 0,
					"source" : [ "obj-144", 0 ]
				}

			}
, 			{
				"patchline" : 				{
					"destination" : [ "obj-64", 0 ],
					"disabled" : 0,
					"hidden" : 0,
					"source" : [ "obj-145", 0 ]
				}

			}
, 			{
				"patchline" : 				{
					"destination" : [ "obj-12", 0 ],
					"disabled" : 0,
					"hidden" : 0,
					"source" : [ "obj-154", 0 ]
				}

			}
, 			{
				"patchline" : 				{
					"destination" : [ "obj-13", 0 ],
					"disabled" : 0,
					"hidden" : 0,
					"source" : [ "obj-155", 0 ]
				}

			}
, 			{
				"patchline" : 				{
					"destination" : [ "obj-14", 0 ],
					"disabled" : 0,
					"hidden" : 0,
					"source" : [ "obj-156", 0 ]
				}

			}
, 			{
				"patchline" : 				{
					"destination" : [ "obj-16", 0 ],
					"disabled" : 0,
					"hidden" : 0,
					"source" : [ "obj-157", 0 ]
				}

			}
, 			{
				"patchline" : 				{
					"destination" : [ "obj-17", 0 ],
					"disabled" : 0,
					"hidden" : 0,
					"source" : [ "obj-158", 0 ]
				}

			}
, 			{
				"patchline" : 				{
					"destination" : [ "obj-18", 0 ],
					"disabled" : 0,
					"hidden" : 0,
					"source" : [ "obj-159", 0 ]
				}

			}
, 			{
				"patchline" : 				{
					"destination" : [ "obj-19", 0 ],
					"disabled" : 0,
					"hidden" : 0,
					"source" : [ "obj-160", 0 ]
				}

			}
, 			{
				"patchline" : 				{
					"destination" : [ "obj-53", 0 ],
					"disabled" : 0,
					"hidden" : 0,
					"source" : [ "obj-161", 0 ]
				}

			}
 ],
		"dependency_cache" : [  ],
		"autosave" : 0,
		"bgfillcolor_type" : "gradient",
		"bgfillcolor_color1" : [ 0.376471, 0.384314, 0.4, 1.0 ],
		"bgfillcolor_color2" : [ 0.290196, 0.309804, 0.301961, 1.0 ],
		"bgfillcolor_color" : [ 0.290196, 0.309804, 0.301961, 1.0 ],
		"bgfillcolor_angle" : 270.0,
		"bgfillcolor_proportion" : 0.39
	}

}
